<svg id="Layer_1" data-name="Layer 1" xmlns="http://www.w3.org/2000/svg" viewBox="0 0 157 50"><defs><style>.cls-1{fill:#fff;}.cls-2{fill:#231f20;}.cls-3{fill:#ffdb00;}</style></defs><title>Artboard 1</title><circle class="cls-1" cx="23" cy="26.62" r="22.23"/><path class="cls-2" d="M23,49.08A22.45,22.45,0,1,1,45.45,26.62,22.48,22.48,0,0,1,23,49.08ZM23,4.62a22,22,0,1,0,22,22A22,22,0,0,0,23,4.62Z"/><circle class="cls-2" cx="22.99" cy="26.62" r="6.58"/><path class="cls-2" d="M23,33.71a7.08,7.08,0,1,1,7.08-7.08A7.09,7.09,0,0,1,23,33.71Zm0-13.16a6.08,6.08,0,1,0,6.08,6.08A6.09,6.09,0,0,0,23,20.54Z"/><path d="M15,23.91,3,26.62,15,29.31a8.4,8.4,0,0,1,0-5.4Z"/><path d="M20.29,34.58,23,46.67l2.69-12.09a8.4,8.4,0,0,1-5.4,0Z"/><path d="M31,29.34,43,26.63,31,23.94a8.42,8.42,0,0,1,0,5.4Z"/><path d="M25.71,18.67,23,6.58,20.31,18.66a8.39,8.39,0,0,1,5.4,0Z"/><polygon points="13.67 33.3 8.83 40.8 16.32 35.96 17.08 32.54 13.67 33.3"/><polygon points="29.68 35.96 37.17 40.8 32.34 33.3 28.92 32.54 29.68 35.96"/><polygon points="32.34 19.95 37.17 12.45 29.68 17.29 28.92 20.71 32.34 19.95"/><polygon points="16.32 17.29 8.83 12.45 13.67 19.95 17.08 20.71 16.32 17.29"/><path d="M7.14,32.19,4.5,34.34,7.89,34q-.21-.43-.4-.88C7.36,32.79,7.25,32.49,7.14,32.19Z"/><path d="M15.68,41.75l-.35,3.39,2.14-2.65c-.3-.11-.61-.22-.91-.34Z"/><path d="M28.53,42.49l2.15,2.65-.36-3.39q-.44.21-.89.4C29.14,42.27,28.83,42.39,28.53,42.49Z"/><path d="M38.11,34l3.39.36-2.64-2.15c-.11.3-.22.61-.35.91S38.25,33.69,38.11,34Z"/><path d="M38.86,21.06l2.64-2.16-3.39.37q.21.43.4.88C38.64,20.46,38.75,20.76,38.86,21.06Z"/><path d="M30.32,11.5l.35-3.39-2.14,2.65q.46.16.91.34C29.74,11.23,30,11.36,30.32,11.5Z"/><path d="M17.47,10.76,15.32,8.11l.36,3.39c.29-.14.58-.27.88-.4S17.17,10.86,17.47,10.76Z"/><path d="M7.89,19.27,4.5,18.91l2.65,2.15c.11-.3.22-.61.35-.91S7.75,19.56,7.89,19.27Z"/><path class="cls-2" d="M55.87,21.1c0,1.33,1,1.85,2.21,1.85.77,0,1.95-.22,1.95-1.25s-1.5-1.26-3-1.65-3-1-3-2.84c0-2,1.93-3,3.74-3,2.09,0,4,.91,4,3.22H59.69c-.07-1.2-.92-1.51-2-1.51-.7,0-1.51.29-1.51,1.13s.48.87,3,1.51c.73.18,3,.64,3,2.91,0,1.83-1.44,3.21-4.16,3.21-2.21,0-4.28-1.09-4.26-3.56Z"/><path class="cls-2" d="M67.25,24.41H65l-2.48-7.24h2.09l1.53,4.94h0l1.53-4.94h2Z"/><path class="cls-2" d="M71.6,21.28c.06,1.26.67,1.83,1.78,1.83A1.64,1.64,0,0,0,75,22.17H76.7a3.26,3.26,0,0,1-3.39,2.44,3.53,3.53,0,0,1-3.7-3.81A3.63,3.63,0,0,1,73.31,17c2.46,0,3.65,2.07,3.51,4.3ZM74.84,20c-.18-1-.62-1.54-1.58-1.54A1.57,1.57,0,0,0,71.6,20Z"/><path class="cls-2" d="M78,17.18h1.89v1h0A2.58,2.58,0,0,1,82.15,17c2.11,0,2.65,1.19,2.65,3v4.45h-2V20.33c0-1.19-.35-1.78-1.27-1.78-1.08,0-1.54.6-1.54,2.07v3.79H78Z"/><path class="cls-2" d="M87.84,22.06c0,.87.74,1.22,1.53,1.22.57,0,1.3-.22,1.3-.92s-.83-.81-2.25-1.12c-1.15-.25-2.3-.66-2.3-1.93,0-1.85,1.6-2.32,3.15-2.32s3,.53,3.19,2.31H90.58c-.06-.77-.64-1-1.36-1-.45,0-1.11.08-1.11.67s1.12.81,2.25,1.08,2.3.69,2.3,2c0,1.9-1.65,2.52-3.3,2.52S86,24,86,22.06Z"/><path class="cls-2" d="M93.44,14.42h2v5.36l2.51-2.6h2.35l-2.73,2.66,3,4.58H98.19l-2-3.23-.77.74v2.49h-2Z"/><path class="cls-2" d="M101.21,19.4c.11-1.86,1.78-2.42,3.4-2.42,1.44,0,3.18.32,3.18,2.06V22.8a3.71,3.71,0,0,0,.25,1.61h-2a3,3,0,0,1-.14-.7,3.32,3.32,0,0,1-2.44.9c-1.37,0-2.46-.69-2.46-2.17,0-1.64,1.23-2,2.46-2.2s2.35-.14,2.35-1-.59-1-1.29-1-1.25.31-1.32,1.09Zm4.59,1.47a4,4,0,0,1-1.65.42c-.62.13-1.18.34-1.18,1.06s.57.92,1.22.92a1.48,1.48,0,0,0,1.61-1.67Z"/><path class="cls-2" d="M54.37,28.42h2.2v4.14l3.91-4.14h2.74l-3.91,3.95,4.28,6H60.84l-3-4.49-1.26,1.27v3.22h-2.2Z"/><path class="cls-2" d="M64.27,31.18h1.89v1.34h0A2.56,2.56,0,0,1,68.5,31a1.49,1.49,0,0,1,.43.07V32.9a3.62,3.62,0,0,0-.71-.07c-1.46,0-2,1-2,2.32v3.26h-2Z"/><path class="cls-2" d="M73.29,39.32A2.27,2.27,0,0,1,70.79,41a11.83,11.83,0,0,1-1.22-.07V39.25a10.59,10.59,0,0,0,1.16.07A.94.94,0,0,0,71.42,38l-2.55-6.79H71l1.64,5h0l1.58-5h2.06Z"/><path class="cls-2" d="M78.52,36.06c0,.87.74,1.22,1.53,1.22.57,0,1.3-.22,1.3-.92s-.83-.81-2.25-1.12c-1.15-.25-2.3-.66-2.3-1.93,0-1.85,1.6-2.32,3.15-2.32s3,.53,3.19,2.31H81.25c-.06-.77-.64-1-1.36-1-.45,0-1.11.08-1.11.67s1.12.81,2.25,1.08,2.3.69,2.3,2c0,1.9-1.65,2.52-3.3,2.52s-3.32-.63-3.4-2.55Z"/><path class="cls-2" d="M85.76,36.06c0,.87.74,1.22,1.53,1.22.57,0,1.3-.22,1.3-.92s-.83-.81-2.25-1.12C85.18,35,84,34.58,84,33.3c0-1.85,1.6-2.32,3.15-2.32s3,.53,3.19,2.31H88.49c-.06-.77-.64-1-1.36-1-.45,0-1.11.08-1.11.67s1.12.81,2.25,1.08,2.3.69,2.3,2c0,1.9-1.65,2.52-3.3,2.52S84,38,83.87,36.06Z"/><path class="cls-2" d="M91.65,33.4c.11-1.86,1.78-2.42,3.4-2.42,1.44,0,3.18.32,3.18,2.06V36.8a3.71,3.71,0,0,0,.25,1.61h-2a3,3,0,0,1-.14-.7,3.32,3.32,0,0,1-2.44.9c-1.37,0-2.46-.69-2.46-2.17,0-1.64,1.23-2,2.46-2.2s2.35-.14,2.35-1-.59-1-1.29-1-1.25.31-1.32,1.09Zm4.59,1.47a4,4,0,0,1-1.65.42c-.62.13-1.18.34-1.18,1.06s.57.92,1.22.92a1.48,1.48,0,0,0,1.61-1.67Z"/><path class="cls-2" d="M99.77,31.18h1.89v1.34h0A2.56,2.56,0,0,1,104,31a1.49,1.49,0,0,1,.43.07V32.9a3.62,3.62,0,0,0-.71-.07c-1.46,0-2,1-2,2.32v3.26h-2Z"/><path class="cls-2" d="M105.4,28.42h2v5.36l2.51-2.6h2.35l-2.73,2.66,3,4.58h-2.41l-2-3.23-.77.74v2.49h-2Z"/><path class="cls-2" d="M113.31,28.42h2v10h-2Z"/><path class="cls-2" d="M123.66,38.41h-1.89v-1h0a2.58,2.58,0,0,1-2.21,1.2c-2.11,0-2.65-1.19-2.65-3V31.18h2v4.09c0,1.19.35,1.78,1.27,1.78,1.08,0,1.54-.6,1.54-2.07V31.18h2Z"/><path class="cls-2" d="M125.17,28.42h2v3.64h0A2.67,2.67,0,0,1,129.47,31c1.44,0,3,1.16,3,3.81s-1.55,3.82-3,3.82a2.51,2.51,0,0,1-2.38-1.12h0v.92h-1.89Zm3.61,4.06c-1.18,0-1.69,1.11-1.69,2.32s.52,2.31,1.69,2.31,1.69-1.11,1.69-2.31S130,32.48,128.78,32.48Z"/><path class="cls-2" d="M133.16,28.42h2v3.64h0A2.67,2.67,0,0,1,137.46,31c1.44,0,3,1.16,3,3.81s-1.55,3.82-3,3.82a2.51,2.51,0,0,1-2.38-1.12h0v.92h-1.89Zm3.61,4.06c-1.18,0-1.69,1.11-1.69,2.32s.52,2.31,1.69,2.31,1.69-1.11,1.69-2.31S138,32.48,136.77,32.48Z"/><path class="cls-2" d="M143.07,35.28c.06,1.26.67,1.83,1.78,1.83a1.64,1.64,0,0,0,1.57-.94h1.75a3.26,3.26,0,0,1-3.39,2.44,3.53,3.53,0,0,1-3.7-3.81,3.63,3.63,0,0,1,3.7-3.82c2.46,0,3.65,2.07,3.51,4.3ZM146.31,34c-.18-1-.62-1.54-1.58-1.54A1.57,1.57,0,0,0,143.07,34Z"/><path class="cls-2" d="M149.47,31.18h1.89v1h0a2.58,2.58,0,0,1,2.21-1.2c2.11,0,2.65,1.19,2.65,3v4.45h-2V34.33c0-1.19-.35-1.78-1.27-1.78-1.08,0-1.54.6-1.54,2.07v3.79h-2Z"/><polygon class="cls-2" points="22.87 1.87 21.33 3.9 22.71 6.4 22.6 7.14 23.68 6.97 23.8 5.49 24.46 3.42 22.87 1.87"/><path class="cls-3" d="M23,2.39a6.3,6.3,0,0,0-.66,1.11,2.43,2.43,0,0,0,0,.73,6.64,6.64,0,0,1,.6,2.53c0,1.32,0,3.67,0,4S21.86,15.07,21,15.53s-1.49-.78-.86-1a1.89,1.89,0,0,0,1.09-1.49,16.88,16.88,0,0,0,0-4.1c-.25-.86-.53-2.05-1.19-2.28s-.63.48-.43.71A3.79,3.79,0,0,1,20.12,9c0,.35-.18.83-.51,1s-.91-.15-.68-.68c.06-.13.17-.12.21-.25a1.4,1.4,0,0,0-.24-1.39c-.48-.48-1-1.62-.1-2.15s2.89-.38,3.34,4.13c0,0-.13-3.49-.28-3.92S21.15,4.42,21.05,4a2.83,2.83,0,0,1,.1-1.27,11.34,11.34,0,0,1,1.11-1.44c.23-.25.35-.46.58-.46h.3c.23,0,.35.2.58.46a11.1,11.1,0,0,1,1.11,1.44A3,3,0,0,1,24.95,4c-.1.38-.66,1.24-.81,1.67s-.28,3.92-.28,3.92C24.32,5.12,26.26,5,27.2,5.5s.38,1.67-.1,2.15A1.41,1.41,0,0,0,26.86,9c0,.14.16.12.21.25.23.53-.35.81-.68.68s-.48-.61-.51-1a3.79,3.79,0,0,1,.48-1.62c.2-.23.23-.94-.43-.71S25,8.11,24.75,9a16.91,16.91,0,0,0,0,4.1,1.89,1.89,0,0,0,1.09,1.49c.63.18,0,1.42-.86,1s-1.92-4.38-1.93-4.73,0-2.71,0-4a6.65,6.65,0,0,1,.6-2.53,2.41,2.41,0,0,0,0-.73A11.37,11.37,0,0,0,23,2.39Z"/><path class="cls-2" d="M20.62,15.75a.83.83,0,0,1-.49-.16.86.86,0,0,1-.36-.78.45.45,0,0,1,.34-.36,1.76,1.76,0,0,0,1-1.39,16.72,16.72,0,0,0,0-4l-.07-.25C20.84,8,20.56,7,20,6.81c-.12,0-.28-.07-.35,0a.47.47,0,0,0,.05.47A3.88,3.88,0,0,1,20.24,9a1.22,1.22,0,0,1-.59,1.07.73.73,0,0,1-.75-.18.59.59,0,0,1-.1-.67A.39.39,0,0,1,19,9.08S19,9,19,9a1.28,1.28,0,0,0-.21-1.27,2.07,2.07,0,0,1-.63-1.56,1.06,1.06,0,0,1,.56-.79,1.73,1.73,0,0,1,1.66,0,3.48,3.48,0,0,1,1.53,2.36,14.83,14.83,0,0,0-.18-2A6.8,6.8,0,0,0,21.36,5a5.32,5.32,0,0,1-.43-.9A2.93,2.93,0,0,1,21,2.73a11.17,11.17,0,0,1,1.14-1.48l.11-.12c.17-.2.32-.37.57-.37h.3c.25,0,.39.17.57.37l.11.12A10.88,10.88,0,0,1,25,2.73a3,3,0,0,1,.1,1.33,5.34,5.34,0,0,1-.43.91,7,7,0,0,0-.38.77,14.9,14.9,0,0,0-.18,2,3.48,3.48,0,0,1,1.53-2.36,1.74,1.74,0,0,1,1.66,0,1.06,1.06,0,0,1,.56.79,2.07,2.07,0,0,1-.64,1.56A1.28,1.28,0,0,0,27,9s0,0,.06.07a.39.39,0,0,1,.15.17.59.59,0,0,1-.1.67.73.73,0,0,1-.75.18A1.22,1.22,0,0,1,25.76,9a3.87,3.87,0,0,1,.51-1.71.47.47,0,0,0,.05-.47c-.07-.1-.23-.08-.35,0-.53.18-.81,1.16-1,1.94L24.87,9a16.78,16.78,0,0,0,0,4,1.77,1.77,0,0,0,1,1.39.45.45,0,0,1,.34.36.87.87,0,0,1-1.29.83c-.81-.43-1.7-3.5-1.94-4.52-.24,1-1.13,4.1-1.94,4.52A.93.93,0,0,1,20.62,15.75Zm-.79-9.23a.84.84,0,0,1,.27.05c.66.23.94,1.23,1.2,2.11l.07.25a17,17,0,0,1,0,4.15,2,2,0,0,1-1.18,1.6.2.2,0,0,0-.16.17.61.61,0,0,0,.27.53.59.59,0,0,0,.66,0c.79-.42,1.85-4.22,1.87-4.63s0-1.71,0-3v-1a4.81,4.81,0,0,0-.41-2,4.66,4.66,0,0,1-.18-.51,2.54,2.54,0,0,1,0-.78,5.32,5.32,0,0,1,.68-1.17L23,2.17l.1.16a7.51,7.51,0,0,1,.68,1.17,2.44,2.44,0,0,1,0,.78,4.75,4.75,0,0,1-.18.51,4.81,4.81,0,0,0-.41,2V7.83c0,1.26,0,2.69,0,3s1.08,4.21,1.87,4.63a.59.59,0,0,0,.66,0,.61.61,0,0,0,.27-.53.2.2,0,0,0-.16-.17,2,2,0,0,1-1.18-1.6,17,17,0,0,1,0-4.15l.07-.25c.25-.88.54-1.88,1.19-2.11.39-.13.57,0,.64.13a.71.71,0,0,1-.07.78A3.73,3.73,0,0,0,26,9c0,.34.17.75.43.85a.48.48,0,0,0,.48-.12.34.34,0,0,0,0-.4.15.15,0,0,0-.06-.07.37.37,0,0,1-.15-.2A1.53,1.53,0,0,1,27,7.57a1.83,1.83,0,0,0,.56-1.35.8.8,0,0,0-.44-.6,1.48,1.48,0,0,0-1.42,0c-.64.33-1.46,1.3-1.74,4.06l-.25,0a39.14,39.14,0,0,1,.29-4,6.71,6.71,0,0,1,.4-.81A5.44,5.44,0,0,0,24.83,4a2.84,2.84,0,0,0-.1-1.2,11.6,11.6,0,0,0-1.09-1.4l-.11-.13c-.16-.19-.25-.29-.38-.29h-.3c-.13,0-.21.09-.38.29l-.11.13a11.62,11.62,0,0,0-1.09,1.4A2.7,2.7,0,0,0,21.17,4a5.42,5.42,0,0,0,.41.85,6.87,6.87,0,0,1,.4.81,39,39,0,0,1,.29,4l-.25,0c-.28-2.76-1.1-3.73-1.74-4.06a1.47,1.47,0,0,0-1.42,0,.8.8,0,0,0-.44.6A1.83,1.83,0,0,0,19,7.57a1.53,1.53,0,0,1,.27,1.52.36.36,0,0,1-.15.2.16.16,0,0,0-.06.07.34.34,0,0,0,0,.4.48.48,0,0,0,.48.12c.26-.1.4-.51.43-.85a3.74,3.74,0,0,0-.45-1.53.71.71,0,0,1-.07-.78A.42.42,0,0,1,19.83,6.52ZM23,2.62a4.73,4.73,0,0,0-.53.9,2.25,2.25,0,0,0,0,.69,4.54,4.54,0,0,0,.17.48A5.45,5.45,0,0,1,23,5.89a5.47,5.47,0,0,1,.36-1.2,4.54,4.54,0,0,0,.17-.48,2.2,2.2,0,0,0,0-.69A9.94,9.94,0,0,0,23,2.62Z"/><path class="cls-3" d="M25.13,10.26a.44.44,0,0,1-.44.44H21.31a.44.44,0,0,1-.44-.44h0a.44.44,0,0,1,.44-.44h3.38a.44.44,0,0,1,.44.44Z"/><path class="cls-2" d="M24.69,10.82H21.31a.56.56,0,0,1,0-1.12h3.38a.56.56,0,0,1,0,1.12Zm-3.38-.87a.31.31,0,0,0,0,.62h3.38a.31.31,0,0,0,0-.62Z"/><path class="cls-3" d="M28.81,27.57a1,1,0,0,0-.79-1l.19-.06a1,1,0,0,0-.62-1.84.94.94,0,0,0,.2-.15,1,1,0,0,0-1.24-1.49,1,1,0,1,0-1.65-1,.94.94,0,0,0,0-.25A1,1,0,0,0,23,21.61a1,1,0,0,0-.06-.19,1,1,0,0,0-1.84.62,1,1,0,1,0-1.64,1L19.28,23a1,1,0,0,0-.86,1.74,1,1,0,1,0-.43,1.9l-.19.06a1,1,0,0,0,.62,1.84,1,1,0,0,0-.2.15,1,1,0,0,0,1.24,1.49,1,1,0,0,0-.09.17,1,1,0,0,0,1.74.86,1,1,0,1,0,1.9.43,1,1,0,1,0,1.9-.43,1,1,0,0,0,.15.2,1,1,0,0,0,1.49-1.24l.17.09a1,1,0,0,0,.86-1.74,1,1,0,0,0,.25,0A1,1,0,0,0,28.81,27.57Z"/><circle class="cls-2" cx="22.99" cy="26.62" r="2.23"/><path class="cls-2" d="M23,29.23a2.6,2.6,0,1,1,2.6-2.6A2.61,2.61,0,0,1,23,29.23Zm0-4.46a1.85,1.85,0,1,0,1.85,1.85A1.85,1.85,0,0,0,23,24.77Z"/></svg>